<?xml version="1.0" encoding="utf-8"?>
<!-- Generator: Adobe Illustrator 19.0.0, SVG Export Plug-In . SVG Version: 6.00 Build 0)  -->
<svg version="1.1" id="Layer_1" xmlns="http://www.w3.org/2000/svg" xmlns:xlink="http://www.w3.org/1999/xlink" x="0px" y="0px"
	 viewBox="0 0 150.8 76" style="enable-background:new 0 0 150.8 76;" xml:space="preserve">
<style type="text/css">
	.st0{fill:#00A651;}
	.st1{fill:#FFFFFF;}
</style>
<path id="XMLID_39_" class="st0" d="M43.1,28.8c0.4-0.3,0.8-0.4,1.2-0.4c0.4,0,0.9,0,1.4,0.2c0.5,0.2,0.9,0.4,1.4,0.8
	c0.4,0.3,0.9,0.8,1.2,1.3c0.4,0.5,0.7,1.1,0.9,1.6c0.2,0.6,0.4,1.1,0.4,1.7c0.1,0.6,0,1.1-0.1,1.6c-0.1,0.5-0.3,1-0.7,1.3
	c-0.3,0.4-0.7,0.6-1.2,0.7c-0.5,0.1-1,0.1-1.5-0.1c-0.5-0.2-1.1-0.4-1.6-0.8c-0.5-0.4-1-0.9-1.4-1.5c-0.4-0.6-0.7-1.3-0.9-1.9
	c-0.2-0.6-0.3-1.3-0.3-1.8c0-0.6,0.1-1.1,0.3-1.6C42.4,29.5,42.7,29.1,43.1,28.8 M58.1,30.5c-0.1,0-0.2,0-0.3,0.1
	c-0.1,0.1-0.1,0.2-0.2,0.4c0,0.2,0,0.3,0,0.5c0,0.2,0.1,0.4,0.2,0.7c0.1,0.2,0.2,0.5,0.3,0.7c0.1,0.2,0.3,0.4,0.4,0.5
	c0.1,0.2,0.3,0.3,0.4,0.3c0.1,0.1,0.3,0.1,0.4,0.1c0.1,0,0.2-0.1,0.3-0.2c0.1-0.1,0.1-0.2,0.1-0.4c0-0.2,0-0.3,0-0.5
	c0-0.2-0.1-0.4-0.2-0.6c-0.1-0.2-0.2-0.4-0.3-0.6c-0.1-0.2-0.3-0.4-0.4-0.5c-0.1-0.1-0.3-0.3-0.4-0.3C58.3,30.5,58.2,30.5,58.1,30.5
	 M60.2,43.9c-0.1,0-0.1,0.1-0.2,0.1c-0.1,0.1-0.1,0.1-0.2,0.2c0,0.1-0.1,0.2-0.1,0.3c0,0.1-0.1,0.2-0.1,0.4c0,0.3,0,0.6,0,0.8
	c0,0.3,0.1,0.6,0.2,0.9c0.1,0.3,0.2,0.6,0.4,0.8c0.2,0.2,0.3,0.4,0.5,0.6c0.1,0.1,0.2,0.1,0.3,0.2c0.1,0,0.2,0.1,0.3,0.1
	c0.1,0,0.2,0,0.2,0c0.1,0,0.1,0,0.2-0.1c0.1,0,0.1-0.1,0.2-0.2c0.1-0.1,0.1-0.1,0.1-0.2c0-0.1,0.1-0.2,0.1-0.3c0-0.1,0-0.2,0-0.4
	c0-0.3,0-0.5-0.1-0.8c0-0.3-0.1-0.6-0.2-0.8c-0.1-0.3-0.2-0.5-0.4-0.7c-0.1-0.2-0.3-0.4-0.5-0.6C61,44.1,61,44.1,60.9,44
	c-0.1-0.1-0.2-0.1-0.2-0.1c-0.1,0-0.2,0-0.2,0C60.3,43.9,60.3,43.9,60.2,43.9 M53.5,56.8c-0.2,0.2-0.4,0.4-0.6,0.8
	c-0.2,0.3-0.3,0.7-0.4,1.1c-0.1,0.4-0.1,0.9-0.1,1.4c0,0.5,0.1,1,0.3,1.4c0.1,0.5,0.3,0.9,0.6,1.2c0.2,0.3,0.5,0.6,0.7,0.7
	c0.3,0.2,0.5,0.2,0.8,0.2c0.3,0,0.5-0.2,0.8-0.4c0.2-0.2,0.4-0.5,0.6-0.9c0.1-0.4,0.2-0.8,0.3-1.2c0.1-0.4,0.1-0.9,0-1.3
	c0-0.4-0.1-0.9-0.3-1.3c-0.1-0.4-0.3-0.8-0.5-1.1c-0.2-0.3-0.4-0.5-0.7-0.7c-0.2-0.2-0.5-0.2-0.7-0.3C54,56.5,53.8,56.6,53.5,56.8
	 M50.9,19c-0.1,0-0.1,0-0.2,0c-0.1,0-0.1,0-0.2,0c-0.1,0-0.1,0-0.2,0.1c0,0-0.1,0.1-0.1,0.1c-0.1,0.1-0.1,0.3-0.1,0.5
	c0,0.2,0.1,0.4,0.1,0.6c0.1,0.2,0.2,0.4,0.3,0.6c0.1,0.2,0.3,0.4,0.5,0.6c0.1,0.1,0.2,0.2,0.3,0.3c0.1,0.1,0.2,0.1,0.3,0.2
	c0.1,0.1,0.2,0.1,0.3,0.1c0.1,0,0.2,0.1,0.2,0.1c0.1,0,0.1,0,0.2,0c0.1,0,0.1,0,0.2,0c0.1,0,0.1-0.1,0.1-0.1c0,0,0.1-0.1,0.1-0.2
	c0-0.1,0.1-0.3,0-0.5c0-0.2-0.1-0.4-0.1-0.6c-0.1-0.2-0.2-0.4-0.3-0.6c-0.1-0.2-0.3-0.4-0.4-0.6c-0.1-0.1-0.2-0.2-0.3-0.2
	c-0.1-0.1-0.2-0.1-0.3-0.2c-0.1-0.1-0.2-0.1-0.2-0.1C51,19,51,19,50.9,19 M56.4,32.3c-0.1-0.4-0.3-0.8-0.5-1.1
	c-0.2-0.3-0.4-0.6-0.7-0.9c-0.3-0.3-0.5-0.5-0.8-0.6c-0.3-0.1-0.5-0.2-0.8-0.2c-0.3,0-0.5,0.1-0.7,0.2c-0.2,0.1-0.3,0.4-0.4,0.6
	c-0.1,0.3-0.1,0.6-0.1,1c0,0.4,0.1,0.8,0.3,1.2c0.2,0.4,0.4,0.8,0.6,1.2c0.2,0.4,0.5,0.7,0.8,1c0.3,0.3,0.6,0.5,0.9,0.6
	c0.3,0.1,0.6,0.2,0.8,0.1c0.3,0,0.5-0.2,0.6-0.3c0.2-0.2,0.3-0.4,0.3-0.7c0.1-0.3,0.1-0.6,0-1C56.6,33.1,56.5,32.7,56.4,32.3
	 M50.7,27.5c0.1,0,0.3,0,0.4,0c0.1,0,0.2-0.1,0.3-0.1c0.1-0.1,0.2-0.1,0.3-0.2c0.1-0.1,0.1-0.2,0.2-0.3c0.1-0.3,0.1-0.6,0.1-0.9
	c0-0.3-0.1-0.7-0.2-1c-0.1-0.3-0.3-0.7-0.5-1c-0.2-0.3-0.5-0.7-0.8-1c-0.1-0.2-0.3-0.3-0.4-0.4c-0.1-0.1-0.3-0.2-0.4-0.3
	c-0.1-0.1-0.3-0.2-0.4-0.2c-0.1-0.1-0.3-0.1-0.4-0.1c-0.1,0-0.3,0-0.4,0c-0.1,0-0.2,0-0.4,0.1c-0.1,0-0.2,0.1-0.3,0.2
	c-0.1,0.1-0.2,0.2-0.2,0.3c-0.1,0.2-0.2,0.5-0.2,0.9c0,0.3,0.1,0.7,0.2,1.1c0.1,0.4,0.3,0.8,0.6,1.2c0.2,0.4,0.5,0.7,0.9,1.1
	c0.2,0.2,0.3,0.3,0.5,0.4c0.2,0.1,0.3,0.2,0.5,0.3c0.2,0.1,0.3,0.1,0.5,0.2C50.4,27.5,50.6,27.5,50.7,27.5 M40.3,14.4
	c0.3,0.1,0.5,0.1,0.7,0.1c0.2,0,0.3-0.1,0.4-0.2c0.1-0.1,0.2-0.3,0.2-0.4c0-0.2,0-0.4-0.1-0.7c-0.1-0.2-0.2-0.5-0.4-0.7
	c-0.2-0.2-0.3-0.5-0.6-0.7c-0.2-0.2-0.4-0.4-0.7-0.6c-0.2-0.2-0.5-0.3-0.8-0.4c-0.3-0.1-0.5-0.1-0.7-0.1c-0.2,0-0.4,0.1-0.5,0.2
	c-0.1,0.1-0.2,0.2-0.2,0.4c0,0.2,0,0.4,0.1,0.7c0.1,0.3,0.2,0.5,0.4,0.8c0.2,0.3,0.4,0.5,0.6,0.8c0.2,0.2,0.5,0.4,0.7,0.6
	C39.7,14.2,40,14.3,40.3,14.4 M54.4,37.9c-0.1,0-0.3,0.1-0.4,0.1c-0.1,0.1-0.2,0.2-0.3,0.3c-0.1,0.1-0.2,0.3-0.3,0.4
	c-0.1,0.2-0.1,0.3-0.2,0.5c-0.1,0.4-0.1,0.9-0.1,1.3c0,0.5,0.1,1,0.3,1.4c0.2,0.5,0.4,0.9,0.6,1.4c0.3,0.4,0.6,0.8,0.9,1.1
	c0.2,0.1,0.3,0.3,0.5,0.3c0.2,0.1,0.3,0.1,0.5,0.2c0.2,0,0.3,0,0.5,0c0.1,0,0.3,0,0.4-0.1c0.1-0.1,0.2-0.1,0.3-0.2
	c0.1-0.1,0.2-0.2,0.3-0.4c0.1-0.1,0.2-0.3,0.2-0.5c0.1-0.2,0.1-0.4,0.1-0.6c0.1-0.4,0-0.8,0-1.3c-0.1-0.4-0.2-0.9-0.3-1.3
	c-0.2-0.4-0.4-0.8-0.6-1.2c-0.2-0.4-0.5-0.7-0.8-1c-0.1-0.1-0.3-0.3-0.4-0.4c-0.2-0.1-0.3-0.2-0.4-0.2c-0.1-0.1-0.3-0.1-0.4-0.1
	C54.6,37.8,54.5,37.8,54.4,37.9 M43.1,23.4c0.4,0.1,0.7,0,1-0.1c0.3-0.1,0.5-0.3,0.6-0.5c0.1-0.2,0.2-0.5,0.2-0.9
	c0-0.3,0-0.7-0.2-1.1c-0.1-0.4-0.3-0.8-0.6-1.2c-0.2-0.4-0.5-0.8-0.9-1.1c-0.3-0.3-0.7-0.6-1.1-0.9c-0.4-0.2-0.8-0.4-1.2-0.5
	c-0.4-0.1-0.8-0.1-1.1-0.1c-0.3,0.1-0.6,0.2-0.8,0.4c-0.2,0.2-0.3,0.5-0.4,0.9c0,0.4,0,0.8,0.1,1.2c0.1,0.5,0.4,0.9,0.6,1.4
	c0.3,0.4,0.6,0.8,1,1.2c0.4,0.4,0.8,0.7,1.2,0.9C42.3,23.2,42.7,23.3,43.1,23.4 M49.4,43.7c-0.4,0.1-0.7,0.4-1,0.7
	c-0.3,0.3-0.5,0.8-0.7,1.3c-0.2,0.5-0.2,1.1-0.2,1.7c0,0.6,0.1,1.3,0.3,2c0.2,0.7,0.5,1.3,0.8,1.8c0.3,0.5,0.7,0.9,1.1,1.2
	c0.4,0.3,0.8,0.5,1.3,0.5c0.4,0,0.8-0.1,1.2-0.3c0.4-0.2,0.7-0.6,0.9-1c0.2-0.4,0.4-0.9,0.5-1.4c0.1-0.5,0.1-1.1,0.1-1.6
	c0-0.6-0.2-1.1-0.3-1.7c-0.2-0.6-0.4-1.1-0.7-1.5c-0.3-0.4-0.6-0.8-1-1.1c-0.4-0.3-0.7-0.5-1.1-0.6C50.2,43.6,49.8,43.6,49.4,43.7
	 M33.1,18.5c-0.3-0.1-0.5-0.1-0.8-0.1c-0.3,0-0.5,0-0.7,0c-0.2,0-0.5,0.1-0.7,0.2c-0.2,0.1-0.4,0.2-0.6,0.4
	c-0.4,0.3-0.6,0.7-0.7,1.2c-0.1,0.5-0.1,1,0,1.5c0.1,0.5,0.4,1.1,0.7,1.7c0.4,0.5,0.8,1.1,1.4,1.5c0.3,0.2,0.6,0.4,0.9,0.6
	c0.3,0.2,0.6,0.3,0.9,0.5c0.3,0.1,0.6,0.2,0.9,0.3c0.3,0.1,0.6,0.1,0.8,0.1c0.3,0,0.5,0,0.8,0c0.2,0,0.5-0.1,0.7-0.2
	c0.2-0.1,0.4-0.2,0.6-0.3c0.2-0.1,0.3-0.3,0.5-0.5c0.3-0.3,0.4-0.7,0.5-1.2c0.1-0.4,0-0.9-0.1-1.4c-0.1-0.5-0.3-0.9-0.6-1.4
	c-0.3-0.5-0.7-0.9-1.1-1.3c-0.2-0.2-0.5-0.4-0.7-0.6c-0.2-0.2-0.5-0.3-0.8-0.5c-0.3-0.1-0.5-0.3-0.8-0.4
	C33.6,18.7,33.4,18.6,33.1,18.5 M24.6,16.2c0.2,0,0.4,0.1,0.6,0.1c0.2,0,0.4,0,0.6,0c0.2,0,0.4-0.1,0.5-0.1c0.2-0.1,0.3-0.1,0.4-0.2
	c0.3-0.2,0.4-0.4,0.5-0.7c0.1-0.3,0.1-0.6,0-0.9c-0.1-0.3-0.2-0.7-0.4-1c-0.2-0.3-0.5-0.7-0.9-1c-0.2-0.2-0.4-0.3-0.6-0.5
	c-0.2-0.1-0.4-0.3-0.6-0.4c-0.2-0.1-0.4-0.2-0.6-0.3c-0.2-0.1-0.4-0.2-0.7-0.2c-0.2-0.1-0.4-0.1-0.6-0.1c-0.2,0-0.4,0-0.6,0
	c-0.2,0-0.4,0-0.6,0.1c-0.2,0-0.4,0.1-0.5,0.2c-0.3,0.2-0.5,0.4-0.7,0.7c-0.1,0.3-0.2,0.6-0.1,1c0.1,0.3,0.2,0.7,0.5,1.1
	c0.2,0.4,0.6,0.8,1,1.1c0.2,0.2,0.4,0.3,0.6,0.5c0.2,0.1,0.5,0.3,0.7,0.4c0.2,0.1,0.5,0.2,0.7,0.3C24.1,16.1,24.3,16.1,24.6,16.2
	 M38.9,41.2c-0.3,0.1-0.5,0.1-0.8,0.3c-0.3,0.1-0.5,0.3-0.8,0.5c-0.2,0.2-0.5,0.4-0.7,0.7c-0.2,0.3-0.4,0.5-0.6,0.9
	c-0.3,0.6-0.6,1.4-0.6,2.1c-0.1,0.8,0,1.5,0.1,2.3c0.2,0.7,0.5,1.5,0.9,2.1c0.4,0.6,0.9,1.1,1.5,1.5c0.3,0.2,0.6,0.3,0.9,0.4
	c0.3,0.1,0.6,0.2,0.9,0.2c0.3,0,0.6,0,0.9-0.1c0.3-0.1,0.6-0.1,0.9-0.3c0.3-0.1,0.5-0.3,0.8-0.5c0.2-0.2,0.5-0.4,0.7-0.6
	c0.2-0.2,0.4-0.5,0.6-0.8c0.2-0.3,0.3-0.6,0.4-0.9c0.2-0.6,0.3-1.3,0.4-2c0-0.7-0.1-1.3-0.2-1.9c-0.2-0.6-0.4-1.2-0.8-1.7
	c-0.3-0.5-0.8-1-1.2-1.3c-0.2-0.2-0.5-0.3-0.8-0.5c-0.3-0.1-0.5-0.2-0.8-0.3c-0.3-0.1-0.5-0.1-0.8-0.1
	C39.5,41.1,39.2,41.2,38.9,41.2 M36.5,33.5c-0.2-0.6-0.4-1.2-0.8-1.7c-0.4-0.5-0.8-1-1.3-1.4c-0.5-0.4-1.1-0.7-1.7-1
	c-0.6-0.2-1.3-0.4-2-0.4c-0.7,0-1.3,0.1-1.9,0.3c-0.6,0.2-1.1,0.6-1.5,1.1c-0.4,0.5-0.7,1-0.9,1.7c-0.2,0.6-0.2,1.4-0.1,2.1
	c0.1,0.8,0.5,1.5,0.9,2.1c0.4,0.6,1,1.2,1.6,1.6c0.6,0.4,1.3,0.8,2,0.9c0.7,0.2,1.4,0.2,2.1,0.1c0.7-0.1,1.3-0.3,1.8-0.7
	c0.5-0.3,0.9-0.8,1.2-1.3c0.3-0.5,0.5-1,0.6-1.6C36.7,34.8,36.7,34.1,36.5,33.5 M32.8,56.7c-0.2,0.1-0.5,0.3-0.7,0.4
	c-0.2,0.2-0.5,0.4-0.7,0.6c-0.2,0.2-0.4,0.5-0.6,0.8c-0.2,0.3-0.4,0.6-0.5,0.9c-0.3,0.7-0.6,1.4-0.7,2.1c-0.1,0.7-0.1,1.4,0,2
	c0.1,0.6,0.3,1.2,0.7,1.7c0.3,0.5,0.8,0.9,1.3,1.1c0.3,0.1,0.5,0.2,0.8,0.2c0.3,0,0.5,0,0.8,0c0.3,0,0.5-0.1,0.8-0.2
	c0.3-0.1,0.5-0.2,0.8-0.4c0.2-0.2,0.5-0.3,0.7-0.6c0.2-0.2,0.4-0.4,0.6-0.7c0.2-0.3,0.4-0.5,0.5-0.8c0.2-0.3,0.3-0.6,0.4-0.9
	c0.2-0.6,0.4-1.3,0.4-1.9c0-0.6,0-1.2-0.1-1.8c-0.1-0.5-0.3-1-0.6-1.5c-0.3-0.4-0.6-0.8-1.1-1c-0.2-0.1-0.4-0.2-0.7-0.3
	c-0.2-0.1-0.5-0.1-0.7-0.1c-0.2,0-0.5,0-0.7,0.1C33.3,56.5,33.1,56.6,32.8,56.7 M15.1,30.8c-0.7,0-1.4,0.1-2.1,0.3
	c-0.6,0.2-1.2,0.5-1.7,0.9c-0.5,0.4-0.9,0.9-1.1,1.4c-0.3,0.5-0.4,1.1-0.3,1.7c0.1,0.6,0.3,1.2,0.7,1.7c0.4,0.5,0.9,1,1.4,1.3
	c0.6,0.3,1.3,0.6,2,0.8c0.7,0.1,1.5,0.2,2.2,0.1c0.7-0.1,1.4-0.3,2-0.6c0.6-0.3,1.1-0.6,1.5-1.1c0.4-0.4,0.7-0.9,0.8-1.4
	c0.2-0.5,0.2-1,0.1-1.5c-0.1-0.5-0.3-1-0.6-1.5c-0.3-0.4-0.7-0.8-1.2-1.2c-0.5-0.3-1-0.6-1.7-0.8C16.5,30.9,15.8,30.8,15.1,30.8"/>
<path id="XMLID_27_" class="st1" d="M76.4,26.4h-1.1c-1.9,0-2.9,0.9-2.9,2.8V31c0,0.3,0.2,0.5,0.5,0.5h5.4c0.6,0,0.9-0.3,0.9-0.9
	v-1.4C79.2,27.3,78.3,26.4,76.4,26.4 M82,24.4c1.2,1.2,1.7,2.8,1.7,4.9v3c0,0.9-0.3,1.7-0.8,2.2c-0.5,0.5-1.3,0.8-2.2,0.8h-7.8
	c-0.3,0-0.5,0.2-0.5,0.5v0.7c0,1.9,1,2.8,2.9,2.8h5.5c0.6,0,0.9,0.3,0.9,0.9v2.2c0,0.6-0.3,0.9-0.9,0.9h-6.2c-2.1,0-3.8-0.6-4.9-1.7
	c-1.2-1.2-1.7-2.8-1.7-4.9v-7.4c0-2.1,0.6-3.8,1.7-4.9c1.2-1.2,2.8-1.7,4.9-1.7h2.5C79.2,22.6,80.9,23.2,82,24.4 M90,38.8
	c0,0.3,0.2,0.5,0.5,0.5h8.5c0.6,0,0.9,0.3,0.9,0.9v2.2c0,0.6-0.3,0.9-0.9,0.9H86.4c-0.6,0-0.9-0.3-0.9-0.9V20.1
	c0-0.6,0.3-0.9,0.9-0.9h2.7c0.6,0,0.9,0.3,0.9,0.9V38.8z M116.5,40.2v2.2c0,0.6-0.3,0.9-0.9,0.9h-13.2c-0.6,0-0.9-0.3-0.9-0.9V20.1
	c0-0.6,0.3-0.9,0.9-0.9h13.2c0.6,0,0.9,0.3,0.9,0.9v2.2c0,0.6-0.3,0.9-0.9,0.9h-9.1c-0.3,0-0.5,0.2-0.5,0.5v5c0,0.3,0.2,0.5,0.5,0.5
	h6.9c0.7,0,1,0.3,1,0.9v2.2c0,0.6-0.3,0.9-1,0.9h-6.9c-0.3,0-0.5,0.2-0.5,0.5v5c0,0.3,0.2,0.5,0.5,0.5h9.1
	C116.2,39.3,116.5,39.6,116.5,40.2 M128.5,39.3c1.9,0,2.9-0.9,2.9-2.8V26.1c0-1.9-1-2.8-2.9-2.8h-4.9c-0.3,0-0.5,0.2-0.5,0.5v15
	c0,0.3,0.2,0.5,0.5,0.5H128.5z M118.7,42.4V20.1c0-0.6,0.3-0.9,0.9-0.9h9.7c2.1,0,3.8,0.6,4.9,1.7c1.2,1.2,1.7,2.8,1.7,4.9v10.9
	c0,2.1-0.6,3.8-1.7,4.9c-1.2,1.2-2.8,1.7-4.9,1.7h-9.7C119,43.4,118.7,43.1,118.7,42.4 M75.5,54c1,0,1.6-0.5,1.6-1.5v-3.3
	c0-1-0.5-1.5-1.6-1.5h-4.2c-0.2,0-0.3,0.1-0.3,0.3v5.7c0,0.2,0.1,0.3,0.3,0.3H75.5z M68.6,55.6v-9.5c0-0.3,0.2-0.5,0.5-0.5h6.8
	c1.2,0,2.1,0.3,2.7,0.9c0.6,0.6,1,1.5,1,2.6v3.5c0,1.1-0.3,2-1,2.6c-0.6,0.6-1.6,0.9-2.7,0.9h-6.8C68.8,56.1,68.6,55.9,68.6,55.6
	 M91.8,54.4v1.2c0,0.3-0.2,0.5-0.5,0.5h-8.9c-0.3,0-0.5-0.2-0.5-0.5v-9.5c0-0.3,0.2-0.5,0.5-0.5h8.9c0.3,0,0.5,0.2,0.5,0.5v1.2
	c0,0.3-0.2,0.5-0.5,0.5h-6.6c-0.2,0-0.3,0.1-0.3,0.3v1.6c0,0.2,0.1,0.3,0.3,0.3H90c0.4,0,0.6,0.2,0.6,0.5v1.2c0,0.3-0.2,0.5-0.6,0.5
	h-5.4c-0.2,0-0.3,0.1-0.3,0.3v1.5c0,0.2,0.1,0.3,0.3,0.3h6.6C91.6,54,91.8,54.1,91.8,54.4 M96.1,52c-0.9,0-1.6-0.2-2.1-0.7
	c-0.5-0.5-0.8-1.1-0.8-1.9v-1c0-0.8,0.3-1.5,0.8-1.9c0.5-0.5,1.2-0.7,2.1-0.7h5.1c0.9,0,1.6,0.2,2.1,0.7c0.5,0.5,0.8,1.1,0.8,1.9
	v0.6c0,0.3-0.2,0.5-0.5,0.5h-1.5c-0.3,0-0.5-0.2-0.5-0.5v-0.4c0-0.2-0.1-0.4-0.2-0.5c-0.1-0.1-0.3-0.2-0.6-0.2h-4.2
	c-0.2,0-0.4,0.1-0.6,0.2c-0.1,0.1-0.2,0.3-0.2,0.5v0.7c0,0.2,0.1,0.4,0.2,0.5c0.1,0.1,0.3,0.2,0.6,0.2h4.6c0.9,0,1.6,0.2,2.1,0.7
	c0.5,0.5,0.8,1.1,0.8,1.9v0.9c0,0.8-0.3,1.5-0.8,1.9c-0.5,0.5-1.2,0.7-2.1,0.7h-5.1c-0.9,0-1.6-0.2-2.1-0.7
	c-0.5-0.5-0.8-1.1-0.8-1.9v-0.6c0-0.3,0.2-0.5,0.5-0.5h1.5c0.3,0,0.5,0.2,0.5,0.5v0.4c0,0.2,0.1,0.4,0.2,0.5
	c0.1,0.1,0.3,0.2,0.6,0.2h4.2c0.2,0,0.4-0.1,0.6-0.2c0.1-0.1,0.2-0.3,0.2-0.5v-0.5c0-0.2-0.1-0.4-0.2-0.5c-0.1-0.1-0.3-0.2-0.6-0.2
	H96.1z M108.2,45.6c0.3,0,0.5,0.2,0.5,0.5v9.5c0,0.3-0.2,0.5-0.5,0.5h-1.5c-0.3,0-0.5-0.2-0.5-0.5v-9.5c0-0.3,0.2-0.5,0.5-0.5H108.2
	z M111.9,55.2c-0.6-0.6-1-1.5-1-2.6v-3.5c0-1.1,0.3-2,1-2.6c0.6-0.6,1.6-0.9,2.7-0.9h4.4c0.9,0,1.6,0.2,2.1,0.7
	c0.5,0.5,0.8,1.1,0.8,1.9v0.6c0,0.3-0.2,0.5-0.5,0.5h-1.5c-0.3,0-0.5-0.2-0.5-0.5v-0.4c0-0.2-0.1-0.4-0.2-0.5
	c-0.1-0.1-0.3-0.2-0.6-0.2H115c-1.1,0-1.6,0.5-1.6,1.5v3.3c0,1,0.5,1.5,1.6,1.5h4c0.2,0,0.3-0.1,0.3-0.3v-0.5c0-0.2-0.1-0.3-0.3-0.3
	h-1.4c-0.3,0-0.5-0.2-0.5-0.5v-1.1c0-0.3,0.2-0.5,0.5-0.5h3.7c0.3,0,0.5,0.2,0.5,0.5v4.2c0,0.3-0.2,0.5-0.5,0.5h-1.5
	c-0.3,0-0.5-0.2-0.5-0.5v-0.2c0-0.1,0-0.1-0.1-0.2c-0.1-0.1-0.2,0-0.3,0l-1,0.7c-0.1,0.1-0.2,0.1-0.3,0.1h-3
	C113.4,56.1,112.5,55.8,111.9,55.2 M132.9,46.1c0-0.3,0.2-0.5,0.5-0.5h1.4c0.3,0,0.5,0.2,0.5,0.5v9.5c0,0.3-0.2,0.5-0.5,0.5h-1.7
	c-0.2,0-0.3,0-0.3-0.1c-0.1,0-0.1-0.1-0.2-0.2l-6.2-6.2v6c0,0.3-0.2,0.5-0.5,0.5h-1.4c-0.3,0-0.5-0.2-0.5-0.5v-9.5
	c0-0.3,0.2-0.5,0.5-0.5h1.7c0.2,0,0.3,0,0.3,0.1c0.1,0,0.1,0.1,0.2,0.2l6.2,6.2V46.1z M140.1,19.3h-0.4c0,0,0,0,0,0v0.3c0,0,0,0,0,0
	h0.4c0.1,0,0.1,0,0.1-0.1v-0.2C140.2,19.3,140.2,19.3,140.1,19.3 M139.7,20.1v0.5c0,0,0,0.1-0.1,0.1h-0.3c0,0-0.1,0-0.1-0.1v-1.7
	c0,0,0-0.1,0.1-0.1h0.9c0.1,0,0.2,0,0.3,0.1c0.1,0.1,0.1,0.2,0.1,0.3v0.4c0,0.1,0,0.2-0.1,0.3c-0.1,0.1-0.2,0.1-0.3,0.1l0.4,0.5
	c0,0,0,0,0,0c0,0,0,0.1-0.1,0.1h-0.3c0,0,0,0,0,0L139.7,20.1L139.7,20.1C139.7,20,139.7,20,139.7,20.1 M140,18.4
	c-0.4,0-0.7,0.1-1,0.4c-0.2,0.2-0.4,0.6-0.4,1c0,0.4,0.1,0.7,0.4,1c0.2,0.2,0.6,0.4,1,0.4c0.4,0,0.7-0.1,1-0.4
	c0.2-0.2,0.4-0.6,0.4-1c0-0.4-0.1-0.7-0.4-1C140.7,18.6,140.4,18.4,140,18.4 M140,17.9c0.3,0,0.5,0,0.8,0.1c0.2,0.1,0.4,0.2,0.6,0.4
	c0.2,0.2,0.3,0.4,0.4,0.6c0.1,0.2,0.1,0.5,0.1,0.8c0,0.3,0,0.5-0.1,0.8c-0.1,0.2-0.2,0.4-0.4,0.6c-0.2,0.2-0.4,0.3-0.6,0.4
	c-0.2,0.1-0.5,0.1-0.8,0.1c-0.3,0-0.5,0-0.8-0.1c-0.2-0.1-0.4-0.2-0.6-0.4c-0.2-0.2-0.3-0.4-0.4-0.6c-0.1-0.2-0.1-0.5-0.1-0.8
	c0-0.3,0-0.5,0.1-0.8c0.1-0.2,0.2-0.4,0.4-0.6c0.2-0.2,0.4-0.3,0.6-0.4C139.4,17.9,139.7,17.9,140,17.9"/>
</svg>
